<?xml version="1.0" encoding="utf-8"?>
<!-- Generator: Adobe Illustrator 17.0.0, SVG Export Plug-In . SVG Version: 6.00 Build 0)  -->
<!DOCTYPE svg PUBLIC "-//W3C//DTD SVG 1.1 Tiny//EN" "http://www.w3.org/Graphics/SVG/1.1/DTD/svg11-tiny.dtd">
<svg version="1.1" baseProfile="tiny" id="Layer_1" xmlns="http://www.w3.org/2000/svg" xmlns:xlink="http://www.w3.org/1999/xlink"
	 x="0px" y="0px" width="612px" height="792px" viewBox="0 0 612 792" overflow="auto" xml:space="preserve">
<path d="M193.553,400.087c-0.188,4.036-0.825,8.061-0.479,12.101c0.291,3.402,1.998,5.174,5.319,5.995
	c6.377-0.998,12.624-0.369,18.741,1.887c2.596,1.287,2.182,4.52,0.821,6.566c-1.89,2.842-4.396,5.181-7.607,6.448
	c-6.602,2.605-15.312-0.954-21.372-3.703c-12.739-5.779-11.224-28.486-10.83-39.779c-0.26-1.951-0.949-2.047-2.066-0.289
	c-2.109,10.855-7.538,23.596-5.127,34.829c1.142,5.321,9.281,8.523,12.183,12.976c2.418,3.711,6.569,1.104,6.635,5.549
	c0.049,3.322-1.666,4.912-4.578,5.943c-6.603,2.339-12.672,0.94-17.404-4.225c-10.039-10.957-10.177-59.892-15.813-62.411
	c-23.396-10.46-27.361-36.659-47.384-48.915c-16.586-10.153-30.195,22.63-45.663,2.851c-5.08-6.496,17.56-39.503,23.59-43.611
	c14.914-10.16-3.3-11.834,1.398-28.377c3.194-11.246,15.908,12.041,17.418,12.237c1.085,0.141,25.594-35.125,18.546-3.793
	c-4.018,17.86-7.595,23.199,10.011,35.012c14.494,9.725,31.5,5.974,46.946,0.794c25.91-8.69,51.585-14.344,78.99-9.731
	c48.558,8.174,89.502,41.157,137.167,53.596c46.931,12.247,113.729,9.77,149.283-28.948c1.047-1.141,12.823-22.291,13.105-15.017
	c0.46,11.843-4.133,22.003-10.441,31.608c-11.995,18.264-28.803,30.22-49.213,37.354c-32.377,11.316-67.685,17.178-101.769,11.76
	c-11.2-1.78-55.418-19.203-65.419-9.786c-1.728,1.627,1.425,14.798,1.458,16.73c0.225,13.173-16.491,14.096-25.607,12.324
	c-3.864-0.751-5.637,0.214-7.11,3.925c-11.096,27.954,11.444,48.862,17.924,74.725c4.623,18.453-33.175,21.761-44.323,25.384
	c-9.808,3.188-51.228,28.644-58.638,20.442c-0.975-1.079-0.247-2.356,0.12-3.53c5.746-18.382,24.068-24.036,39.655-30.821
	c2.957-1.287,33.26-6.121,34.229-8.798c3.336-9.223-21.712-45.126-27.027-53.397c-8.552-13.309-23.812-36.006-38.874-42.152
	c-7.843-3.2-16.351-3.634-24.198-6.735c-1.941-0.767-2.553-0.335-2.583,1.787C193.516,392.623,193.553,396.355,193.553,400.087
	C193.366,404.123,193.553,396.355,193.553,400.087z"/>
</svg>
